<svg width="30" height="31" viewBox="0 0 30 31" fill="none" xmlns="http://www.w3.org/2000/svg">
<path d="M9.93763 23.241L9.93789 23.2329V23.2249V22.1124V21.8448L9.71524 21.6964C6.68864 19.6786 4.71289 16.1772 4.71289 12.8874C4.71289 9.75158 6.11906 6.81968 8.5639 4.85188C11.0056 2.88661 14.2125 2.14507 17.3552 2.83814L17.3555 2.8382C20.336 3.49392 22.9092 5.48604 24.2403 8.16019C26.8171 13.3501 24.3482 19.0057 20.3335 21.7102L20.1129 21.8588V22.1249V23.0624V23.071L20.1132 23.0796C20.1256 23.4391 20.1199 23.898 19.7725 24.258C19.5013 24.5176 19.0903 24.6874 18.4629 24.6874H11.5754C11.0275 24.6874 10.5259 24.6139 10.2213 24.3012C9.93321 24.0052 9.92489 23.6361 9.93763 23.241ZM10.8004 23.2999V23.3025C10.8002 23.2953 10.8004 23.2932 10.8004 23.2999ZM10.7879 23.7874H10.8004V23.7999H11.3003C11.3004 23.7999 11.3018 23.7999 11.3051 23.8L11.3208 23.8009C11.3366 23.8018 11.3515 23.803 11.3773 23.8049C11.4243 23.8082 11.4885 23.8124 11.5629 23.8124H18.4629C18.6175 23.8124 18.7474 23.7973 18.8466 23.7724L19.2254 23.6778V23.2874V23.2872V23.2869V23.2867V23.2865V23.2863V23.2861V23.2858V23.2856V23.2854V23.2852V23.2849V23.2847V23.2845V23.2843V23.284V23.2838V23.2836V23.2834V23.2832V23.2829V23.2827V23.2825V23.2822V23.282V23.2818V23.2816V23.2813V23.2811V23.2809V23.2807V23.2804V23.2802V23.28V23.2797V23.2795V23.2793V23.2791V23.2788V23.2786V23.2784V23.2781V23.2779V23.2777V23.2774V23.2772V23.277V23.2768V23.2765V23.2763V23.2761V23.2758V23.2756V23.2754V23.2751V23.2749V23.2747V23.2744V23.2742V23.274V23.2737V23.2735V23.2732V23.273V23.2728V23.2725V23.2723V23.2721V23.2718V23.2716V23.2714V23.2711V23.2709V23.2706V23.2704V23.2702V23.2699V23.2697V23.2695V23.2692V23.269V23.2687V23.2685V23.2683V23.268V23.2678V23.2675V23.2673V23.2671V23.2668V23.2666V23.2663V23.2661V23.2659V23.2656V23.2654V23.2651V23.2649V23.2646V23.2644V23.2642V23.2639V23.2637V23.2634V23.2632V23.2629V23.2627V23.2625V23.2622V23.262V23.2617V23.2615V23.2612V23.261V23.2607V23.2605V23.2603V23.26V23.2598V23.2595V23.2593V23.259V23.2588V23.2585V23.2583V23.258V23.2578V23.2575V23.2573V23.2571V23.2568V23.2566V23.2563V23.2561V23.2558V23.2556V23.2553V23.2551V23.2548V23.2546V23.2543V23.2541V23.2538V23.2536V23.2533V23.2531V23.2528V23.2526V23.2523V23.2521V23.2518V23.2516V23.2513V23.2511V23.2508V23.2506V23.2503V23.2501V23.2498V23.2496V23.2493V23.2491V23.2488V23.2486V23.2483V23.2481V23.2478V23.2476V23.2473V23.2471V23.2468V23.2466V23.2463V23.246V23.2458V23.2455V23.2453V23.245V23.2448V23.2445V23.2443V23.244V23.2438V23.2435V23.2433V23.243V23.2428V23.2425V23.2422V23.242V23.2417V23.2415V23.2412V23.241V23.2407V23.2405V23.2402V23.24V23.2397V23.2395V23.2392V23.2389V23.2387V23.2384V23.2382V23.2379V23.2377V23.2374V23.2372V23.2369V23.2367V23.2364V23.2361V23.2359V23.2356V23.2354V23.2351V23.2349V23.2346V23.2344V23.2341V23.2338V23.2336V23.2333V23.2331V23.2328V23.2326V23.2323V23.232V23.2318V23.2315V23.2313V23.231V23.2308V23.2305V23.2303V23.23V23.2297V23.2295V23.2292V23.229V23.2287V23.2285V23.2282V23.228V23.2277V23.2274V23.2272V23.2269V23.2267V23.2264V23.2262V23.2259V23.2256V23.2254V23.2251V23.2249V23.2246V23.2244V23.2241V23.2239V23.2236V23.2233V23.2231V23.2228V23.2226V23.2223V23.2221V23.2218V23.2215V23.2213V23.221V23.2208V23.2205V23.2203V23.22V23.2197V23.2195V23.2192V23.219V23.2187V23.2185V23.2182V23.218V23.2177V23.2174V23.2172V23.2169V23.2167V23.2164V23.2162V23.2159V23.2157V23.2154V23.2151V23.2149V23.2146V23.2144V23.2141V23.2139V23.2136V23.2134V23.2131V23.2128V23.2126V23.2123V23.2121V23.2118V23.2116V23.2113V23.2111V23.2108V23.2106V23.2103V23.21V23.2098V23.2095V23.2093V23.209V23.2088V23.2085V23.2083V23.208V23.2078V23.2075V23.2072V23.207V23.2067V23.2065V23.2062V23.206V23.2057V23.2055V23.2052V23.205V23.2047V23.2045V23.2042V23.204V23.2037V23.2035V23.2032V23.2029V23.2027V23.2024V23.2022V23.2019V23.2017V23.2014V23.2012V23.2009V23.2007V23.2004V23.2002V23.1999V23.1997V23.1994V23.1992V23.1989V23.1987V23.1984V23.1982V23.1979V23.1977V23.1974V23.1972V23.1969V23.1967V23.1964V23.1962V23.1959V23.1957V23.1954V23.1952V23.1949V23.1947V23.1944V23.1942V23.1939V23.1937V23.1934V23.1932V23.1929V23.1927V23.1925V23.1922V23.192V23.1917V23.1915V23.1912V23.191V23.1907V23.1905V23.1902V23.19V23.1897V23.1895V23.1893V23.189V23.1888V23.1885V23.1883V23.188V23.1878V23.1875V23.1873V23.1871V23.1868V23.1866V23.1863V23.1861V23.1858V23.1856V23.1854V23.1851V23.1849V23.1846V23.1844V23.1841V23.1839V23.1837V23.1834V23.1832V23.1829V23.1827V23.1825V23.1822V23.182V23.1817V23.1815V23.1813V23.181V23.1808V23.1805V23.1803V23.1801V23.1798V23.1796V23.1793V23.1791V23.1789V23.1786V23.1784V23.1782V23.1779V23.1777V23.1774V23.1772V23.177V23.1767V23.1765V23.1763V23.176V23.1758V23.1756V23.1753V23.1751V23.1749V23.1746V23.1744V23.1742V23.1739V23.1737V23.1735V23.1732V23.173V23.1728V23.1725V23.1723V23.1721V23.1718V23.1716V23.1714V23.1712V23.1709V23.1707V23.1705V23.1702V23.17V23.1698V23.1695V23.1693V23.1691V23.1689V23.1686V23.1684V23.1682V23.168V23.1677V23.1675V23.1673V23.1671V23.1668V23.1666V23.1664V23.1662V23.1659V23.1657V23.1655V23.1653V23.165V23.1648V23.1646V23.1644V23.1641V23.1639V23.1637V23.1635V23.1633V23.163V23.1628V23.1626V23.1624V21.5874C19.2254 21.434 19.3114 21.2878 19.4298 21.2178L19.4298 21.2179L19.4341 21.2152C23.3023 18.876 25.9155 13.5003 23.4353 8.52675C22.2161 6.07533 19.8639 4.26817 17.1454 3.67407C14.2764 3.04235 11.333 3.71275 9.08665 5.52306C6.84382 7.33052 5.56289 10.0112 5.56289 12.8874C5.56289 16.5861 8.10138 19.7278 10.5784 21.2273C10.714 21.31 10.7879 21.4465 10.7879 21.5999V23.2874V23.7874ZM11.2852 23.7874H11.2879C11.2946 23.7874 11.2925 23.7875 11.2852 23.7874Z" fill="#216FED" stroke="#216FED"/>
<path d="M19.488 27.5691L19.488 27.5691L19.4925 27.5704C19.7173 27.6322 19.8597 27.8754 19.7929 28.1182L19.7917 28.1228C19.7406 28.3159 19.574 28.4383 19.3751 28.4383C19.336 28.4383 19.2947 28.4328 19.2502 28.4201C16.4612 27.6196 13.5294 27.6193 10.7403 28.4193C10.5072 28.4822 10.2645 28.3504 10.1915 28.1071C10.127 27.892 10.2498 27.6457 10.5035 27.568C13.4378 26.7322 16.5539 26.7325 19.488 27.5691Z" fill="#216FED" stroke="#216FED"/>
</svg>
