<svg width="16" height="17" viewBox="0 0 16 17" fill="none" xmlns="http://www.w3.org/2000/svg">
<mask id="path-1-inside-1_1981_7722" fill="white">
<path d="M9.6204 13.0467C9.49374 13.0467 9.36707 13.0001 9.26707 12.9001C9.07374 12.7067 9.07374 12.3867 9.26707 12.1934L12.9604 8.50008L9.26707 4.80674C9.07374 4.61341 9.07374 4.29341 9.26707 4.10008C9.4604 3.90674 9.7804 3.90674 9.97374 4.10008L14.0204 8.14674C14.2137 8.34008 14.2137 8.66008 14.0204 8.85341L9.97374 12.9001C9.87374 13.0001 9.74707 13.0467 9.6204 13.0467Z"/>
</mask>
<path d="M9.6204 13.0467C9.49374 13.0467 9.36707 13.0001 9.26707 12.9001C9.07374 12.7067 9.07374 12.3867 9.26707 12.1934L12.9604 8.50008L9.26707 4.80674C9.07374 4.61341 9.07374 4.29341 9.26707 4.10008C9.4604 3.90674 9.7804 3.90674 9.97374 4.10008L14.0204 8.14674C14.2137 8.34008 14.2137 8.66008 14.0204 8.85341L9.97374 12.9001C9.87374 13.0001 9.74707 13.0467 9.6204 13.0467Z" fill="#216FED"/>
<path d="M9.26707 12.1934L8.55996 11.4863L9.26707 12.1934ZM12.9604 8.50008L13.6675 9.20718L14.3746 8.50008L13.6675 7.79297L12.9604 8.50008ZM9.26707 4.80674L8.55996 5.51385H8.55996L9.26707 4.80674ZM9.97374 4.10008L9.26663 4.80718H9.26663L9.97374 4.10008ZM14.0204 8.14674L14.7275 7.43964L14.0204 8.14674ZM14.0204 8.85341L14.7275 9.56052L14.0204 8.85341ZM9.97374 12.9001L9.26663 12.193H9.26663L9.97374 12.9001ZM9.6204 12.0467C9.74464 12.0467 9.87676 12.0955 9.97418 12.193L8.55996 13.6072C8.85738 13.9046 9.24284 14.0467 9.6204 14.0467V12.0467ZM9.97418 12.193C10.1714 12.3902 10.1714 12.7033 9.97418 12.9005L8.55996 11.4863C7.97611 12.0702 7.97611 13.0233 8.55996 13.6072L9.97418 12.193ZM9.97418 12.9005L13.6675 9.20718L12.2533 7.79297L8.55996 11.4863L9.97418 12.9005ZM13.6675 7.79297L9.97418 4.09964L8.55996 5.51385L12.2533 9.20718L13.6675 7.79297ZM9.97418 4.09964C10.1714 4.29683 10.1714 4.60999 9.97418 4.80718L8.55996 3.39297C7.97611 3.97683 7.97611 4.92999 8.55996 5.51385L9.97418 4.09964ZM9.97418 4.80718C9.77699 5.00438 9.46382 5.00438 9.26663 4.80718L10.6808 3.39297C10.097 2.80911 9.14382 2.80911 8.55996 3.39297L9.97418 4.80718ZM9.26663 4.80718L13.3133 8.85385L14.7275 7.43964L10.6808 3.39297L9.26663 4.80718ZM13.3133 8.85385C13.1161 8.65666 13.1161 8.3435 13.3133 8.1463L14.7275 9.56052C15.3114 8.97666 15.3114 8.0235 14.7275 7.43964L13.3133 8.85385ZM13.3133 8.1463L9.26663 12.193L10.6808 13.6072L14.7275 9.56052L13.3133 8.1463ZM9.26663 12.193C9.36405 12.0956 9.49617 12.0467 9.6204 12.0467V14.0467C9.99797 14.0467 10.3834 13.9046 10.6808 13.6072L9.26663 12.193Z" fill="#216FED" mask="url(#path-1-inside-1_1981_7722)"/>
<mask id="path-3-inside-2_1981_7722" fill="white">
<path d="M13.553 9H2.33301C2.05967 9 1.83301 8.77333 1.83301 8.5C1.83301 8.22667 2.05967 8 2.33301 8H13.553C13.8263 8 14.053 8.22667 14.053 8.5C14.053 8.77333 13.8263 9 13.553 9Z"/>
</mask>
<path d="M13.553 9H2.33301C2.05967 9 1.83301 8.77333 1.83301 8.5C1.83301 8.22667 2.05967 8 2.33301 8H13.553C13.8263 8 14.053 8.22667 14.053 8.5C14.053 8.77333 13.8263 9 13.553 9Z" fill="#216FED"/>
<path d="M13.553 8H2.33301V10H13.553V8ZM2.33301 8C2.61196 8 2.83301 8.22105 2.83301 8.5H0.833008C0.833008 9.32562 1.50739 10 2.33301 10V8ZM2.83301 8.5C2.83301 8.77895 2.61196 9 2.33301 9V7C1.50739 7 0.833008 7.67438 0.833008 8.5H2.83301ZM2.33301 9H13.553V7H2.33301V9ZM13.553 9C13.2741 9 13.053 8.77895 13.053 8.5H15.053C15.053 7.67438 14.3786 7 13.553 7V9ZM13.053 8.5C13.053 8.22105 13.2741 8 13.553 8V10C14.3786 10 15.053 9.32562 15.053 8.5H13.053Z" fill="#216FED" mask="url(#path-3-inside-2_1981_7722)"/>
</svg>
