<svg width="21" height="20" viewBox="0 0 21 20" fill="none" xmlns="http://www.w3.org/2000/svg">
<path d="M10.4004 2C9.30039 2 8.40039 2.9 8.40039 4C8.40039 5.1 9.30039 6 10.4004 6C11.5004 6 12.4004 5.1 12.4004 4C12.4004 2.9 11.5004 2 10.4004 2Z" fill="#848484"/>
<path d="M10.4004 14C9.30039 14 8.40039 14.9 8.40039 16C8.40039 17.1 9.30039 18 10.4004 18C11.5004 18 12.4004 17.1 12.4004 16C12.4004 14.9 11.5004 14 10.4004 14Z" fill="#848484"/>
<path d="M10.4004 8.33398C9.30039 8.33398 8.40039 9.23398 8.40039 10.334C8.40039 11.434 9.30039 12.334 10.4004 12.334C11.5004 12.334 12.4004 11.434 12.4004 10.334C12.4004 9.23398 11.5004 8.33398 10.4004 8.33398Z" fill="#848484"/>
</svg>
